<svg width="90" height="90" viewBox="0 0 90 90" fill="none" xmlns="http://www.w3.org/2000/svg">
<path d="M43.9501 0.189978C41.7801 1.01998 36.4001 3.69998 32.4401 10.87C31.8001 12.03 32.0401 13.48 32.9701 14.41C43.6901 25.07 44.8401 29.36 44.8401 29.36C44.8401 29.36 47.6001 22.61 56.6001 14.44C57.6201 13.51 57.9101 11.99 57.2401 10.78C53.1301 3.39998 48.0301 0.909978 45.9101 0.159978C45.2701 -0.0700219 44.5801 -0.0500219 43.9501 0.189978Z" fill="#EA631A"/>
<path d="M0.0499928 23.33C-0.120007 22.54 0.189993 21.73 0.819993 21.25C2.86999 19.71 8.20999 16.66 17.54 17.36C29.73 18.27 43.32 34.38 44.84 49.67C44.88 50.06 44.8 50.45 44.63 50.8C43.85 52.41 41.54 52.33 40.89 50.66C39.9 48.11 38.3 45.19 35.86 43.52C30.22 39.67 24.19 41.74 18.03 40.34C6.76999 37.8 1.30999 29.21 0.0499928 23.33Z" fill="#A9C5D1"/>
<path d="M49.93 60.22C48.64 56.11 50.2 48.68 54.81 45.52C60.15 41.86 65.67 41.74 71.84 40.34C83.78 37.64 89.19 28.14 90 22.29C90.02 22.16 89.97 22.04 89.87 21.96C88.78 21.06 81.98 15.93 70.8 17.66C56.85 19.82 47.5 36.43 43.53 46.08C42.52 48.54 40.5 54.51 38.47 60.68C37.05 65.01 31.03 65.01 29.56 60.7C29.53 60.61 29.5 60.52 29.47 60.43C26.35 51.52 23.06 47.77 18.34 45.62C14.43 43.84 7.36997 44.81 6.06997 45.01C5.92997 45.03 5.82997 45.11 5.77997 45.24C4.99997 47.23 0.329971 62.36 11.42 74.14C22.43 85.83 31.46 89.99 31.62 89.99C31.62 89.99 38.39 87.05 45.01 87.05C51.63 87.05 57.52 89.99 58.09 89.99C58.25 89.99 66.59 86.29 78.37 74.14C90.15 61.99 84.79 47.24 84.01 45.24C83.96 45.11 83.85 45.03 83.72 45.01C82.41 44.81 75.36 43.83 71.45 45.62C66.74 47.77 63.45 51.52 60.32 60.43C60.29 60.52 60.26 60.61 60.23 60.7C58.55 65.59 51.73 65.62 50.09 60.72C50.03 60.54 49.98 60.37 49.93 60.22Z" fill="#381E15"/>
</svg>
