<svg width="91" height="115" viewBox="0 0 91 115" fill="none" xmlns="http://www.w3.org/2000/svg">
<path d="M26.5261 38.0017C34.2961 42.3917 39.5361 48.5117 42.7761 53.3717C42.7961 53.3717 42.8161 53.3917 42.8161 53.3917C42.8161 53.3917 44.6561 37.6617 35.3061 23.2917C28.1961 12.3717 17.2261 11.5017 12.3761 11.7217C10.9161 11.7817 9.73612 12.9117 9.56612 14.3617C9.10612 18.3717 8.67612 26.6217 11.8261 33.0317C12.3161 34.0317 13.3461 34.6417 14.4561 34.6517C18.1361 34.7017 22.2461 35.5917 26.5261 38.0117V38.0017Z" fill="#F88A4F"/>
<path d="M63.8259 38.0017C56.0559 42.3917 50.8159 48.5117 47.5759 53.3717C47.5559 53.3717 47.5359 53.3917 47.5359 53.3917C47.5359 53.3917 45.6959 37.6617 55.0459 23.2917C62.1559 12.3717 73.1259 11.5017 77.9759 11.7217C79.4359 11.7817 80.6159 12.9117 80.7859 14.3617C81.2459 18.3717 81.6759 26.6217 78.5259 33.0317C78.0359 34.0317 77.0059 34.6417 75.8959 34.6517C72.2159 34.7017 68.1059 35.5917 63.8259 38.0117V38.0017Z" fill="#F88A4F"/>
<path d="M44.2361 0.181748C42.0461 1.01175 36.6361 3.68175 32.6561 10.8117C32.0161 11.9617 32.2561 13.4117 33.1961 14.3417C43.9861 24.9517 45.2161 35.8417 45.2161 35.8417C45.2161 35.8417 45.2261 35.8417 45.2361 35.8317C45.1761 33.9317 47.9261 22.5117 56.9761 14.3817C58.0061 13.4617 58.2961 11.9417 57.6161 10.7417C53.4661 3.38175 48.3361 0.911748 46.2061 0.161748C45.5661 -0.0682522 44.8661 -0.0482515 44.2261 0.191748L44.2361 0.181748Z" fill="#EA631A"/>
<path d="M0.0460258 43.5317C-0.123974 42.7517 0.186026 41.9417 0.826026 41.4617C2.89603 39.9317 8.26602 36.8917 17.646 37.5817C29.906 38.4917 43.586 54.5217 45.116 69.7417C45.156 70.1317 45.076 70.5217 44.906 70.8717C44.116 72.4717 41.796 72.4017 41.146 70.7317C40.146 68.1917 38.546 65.2817 36.086 63.6217C30.406 59.7917 24.346 61.8517 18.146 60.4617C6.81602 57.9317 1.33603 49.3817 0.056026 43.5317H0.0460258Z" fill="#A9C5D1"/>
<path d="M50.246 80.2618C48.946 76.1618 50.516 68.7718 55.156 65.6318C60.526 61.9918 66.086 61.8618 72.286 60.4718C84.306 57.7818 89.746 48.3218 90.566 42.5018C90.586 42.3718 90.536 42.2518 90.436 42.1718C89.336 41.2718 82.496 36.1718 71.246 37.8918C57.206 40.0418 47.796 56.5818 43.806 66.1818C42.786 68.6318 40.756 74.5718 38.716 80.7218C37.286 85.0318 31.236 85.0318 29.746 80.7418C29.716 80.6518 29.686 80.5618 29.656 80.4718C26.516 71.6018 23.206 67.8618 18.466 65.7318C14.536 63.9618 7.43601 64.9318 6.11601 65.1318C5.97601 65.1518 5.87601 65.2318 5.82601 65.3618C5.04601 67.3418 -0.923988 83.7518 11.506 94.1318C23.786 104.392 30.396 115.002 30.556 115.002C30.556 115.002 37.856 113.542 43.526 113.442C49.196 113.342 57.136 115.002 57.136 115.002C57.296 115.002 66.596 104.392 78.876 94.1318C91.306 83.7518 85.336 67.3518 84.556 65.3618C84.506 65.2318 84.396 65.1518 84.266 65.1318C82.956 64.9318 75.846 63.9618 71.916 65.7318C67.176 67.8718 63.866 71.6018 60.726 80.4718C60.696 80.5618 60.666 80.6518 60.636 80.7418C58.946 85.6118 52.076 85.6418 50.436 80.7618C50.376 80.5818 50.316 80.4118 50.276 80.2618H50.246Z" fill="#381E15"/>
</svg>
